<?xml version="1.0" standalone="no"?>
<!DOCTYPE svg PUBLIC "-//W3C//DTD SVG 20010904//EN"
 "http://www.w3.org/TR/2001/REC-SVG-20010904/DTD/svg10.dtd">
<svg version="1.0" xmlns="http://www.w3.org/2000/svg"
 width="128.000000pt" height="128.000000pt" viewBox="0 0 128.000000 128.000000"
 preserveAspectRatio="xMidYMid meet">

<g transform="translate(0.000000,128.000000) scale(0.100000,-0.100000)"
fill="#000000" stroke="none">
<path d="M630 1170 c0 -5 6 -10 14 -10 8 0 18 5 21 10 3 6 -3 10 -14 10 -12 0
-21 -4 -21 -10z"/>
<path d="M771 1151 c-11 -7 -7 -10 14 -13 16 -2 30 -8 32 -15 3 -8 -3 -11 -16
-8 -11 2 -35 -1 -53 -6 -18 -6 -42 -11 -54 -13 -11 -2 -29 -8 -40 -15 -17 -10
-15 -11 12 -6 29 6 31 4 27 -19 -4 -21 -1 -26 14 -26 27 0 59 25 45 34 -7 4
-12 13 -12 19 1 7 8 3 18 -8 17 -20 62 -29 62 -12 0 5 10 6 23 2 20 -6 21 -5
4 8 -10 8 -15 21 -11 30 14 38 -30 70 -65 48z m44 -51 c4 -6 -6 -10 -22 -9
-25 0 -26 1 -8 9 11 5 21 9 22 9 1 1 5 -3 8 -9z"/>
<path d="M514 1127 c-11 -12 -12 -17 -4 -11 8 6 22 13 30 16 9 3 10 7 3 11 -6
4 -19 -3 -29 -16z"/>
<path d="M551 1124 c-19 -8 -32 -17 -29 -19 7 -7 55 11 63 24 8 14 8 13 -34
-5z"/>
<path d="M855 1121 c-3 -5 2 -11 10 -15 8 -3 17 -1 20 3 3 5 -2 11 -10 15 -8
3 -17 1 -20 -3z"/>
<path d="M520 1075 c-7 -9 -11 -16 -9 -18 48 -27 52 -28 59 -17 4 7 13 9 19 6
6 -4 11 -2 11 3 0 6 7 11 16 11 8 0 12 5 9 11 -4 6 -21 9 -39 8 -17 -2 -36 0
-43 4 -6 4 -16 0 -23 -8z"/>
<path d="M302 1044 c-14 -16 -36 -19 -27 -4 3 6 0 10 -8 10 -7 0 -14 -6 -15
-12 -3 -45 -10 -73 -17 -70 -4 2 -12 -2 -16 -10 -6 -9 -11 -10 -16 -2 -12 17
-43 25 -44 11 -1 -7 -2 -25 -3 -40 -2 -16 3 -35 11 -42 12 -12 10 -17 -12 -31
-25 -16 -33 -39 -16 -46 10 -3 14 -22 12 -50 -1 -11 -9 -18 -22 -18 -11 0 -17
5 -14 10 3 6 -1 10 -9 10 -21 0 -20 -17 1 -29 14 -7 15 -12 5 -24 -11 -13 -9
-16 9 -22 11 -4 37 -18 56 -31 32 -22 73 -32 73 -19 0 3 -6 21 -14 40 -8 18
-12 35 -10 38 3 2 -4 7 -16 10 -11 3 -20 1 -20 -4 0 -5 5 -9 10 -9 6 0 5 -8
-2 -20 -7 -11 -17 -20 -22 -20 -6 0 -5 5 2 12 8 8 7 15 -9 28 -16 15 -18 22
-9 44 10 26 30 28 30 3 0 -7 -4 -6 -11 3 -7 10 -9 11 -7 2 9 -32 23 -2 22 46
-1 28 2 52 7 52 5 0 9 -11 9 -25 0 -27 14 -34 23 -11 3 8 1 16 -6 19 -6 2 -1
6 11 9 12 4 22 2 22 -3 0 -5 4 -9 10 -9 8 0 15 25 23 80 4 23 17 40 30 39 9 0
9 -2 0 -5 -7 -3 -4 -13 10 -27 l22 -22 32 34 c18 18 30 38 27 43 -4 7 -9 7
-13 0 -3 -5 -17 -8 -31 -7 -18 1 -24 7 -23 21 2 10 -5 29 -15 41 -15 19 -19
20 -30 7z m-22 -44 c0 -5 -4 -10 -10 -10 -5 0 -10 5 -10 10 0 6 5 10 10 10 6
0 10 -4 10 -10z m20 -20 c0 -5 -5 -10 -11 -10 -5 0 -7 5 -4 10 3 6 8 10 11 10
2 0 4 -4 4 -10z m-110 -30 c0 -5 -4 -10 -10 -10 -5 0 -10 5 -10 10 0 6 5 10
10 10 6 0 10 -4 10 -10z m100 6 c0 -3 -4 -8 -10 -11 -5 -3 -10 -1 -10 4 0 6 5
11 10 11 6 0 10 -2 10 -4z m-50 -26 c0 -11 6 -23 14 -26 8 -3 17 -12 20 -20 4
-10 -1 -13 -17 -10 -12 2 -23 9 -23 17 -1 8 -2 20 -3 27 -2 19 -18 14 -24 -8
-3 -11 -1 -20 5 -20 5 0 6 -5 2 -11 -5 -8 -10 -6 -16 5 -5 9 -16 16 -25 16
-20 0 -8 15 29 35 33 18 38 18 38 -5z m-67 -111 c4 -16 3 -18 -9 -8 -7 6 -11
15 -8 20 8 13 11 11 17 -12z m47 -159 c0 -5 -4 -10 -10 -10 -5 0 -10 5 -10 10
0 6 5 10 10 10 6 0 10 -4 10 -10z"/>
<path d="M460 1042 c0 -7 -6 -12 -14 -12 -22 0 -27 -16 -6 -17 18 -2 36 24 25
35 -3 3 -5 0 -5 -6z"/>
<path d="M920 1028 c0 -16 69 -72 77 -64 4 3 1 6 -5 6 -7 0 -12 4 -12 10 0 9
-47 60 -55 60 -3 0 -5 -6 -5 -12z"/>
<path d="M895 980 c3 -5 11 -10 16 -10 6 0 7 5 4 10 -3 6 -11 10 -16 10 -6 0
-7 -4 -4 -10z"/>
<path d="M395 927 c-4 -10 -5 -21 -1 -24 10 -10 18 4 13 24 -4 17 -4 17 -12 0z"/>
<path d="M1037 847 c5 -36 13 -49 13 -24 0 21 7 21 25 3 12 -12 12 -16 0 -26
-11 -9 -11 -17 -3 -36 13 -28 8 -37 -16 -28 -11 4 -15 15 -14 32 2 18 -2 27
-14 30 -16 3 -20 -20 -5 -34 4 -4 2 -13 -4 -21 -9 -10 -7 -13 7 -13 15 0 16
-2 5 -9 -9 -6 -10 -11 -2 -15 19 -12 12 -24 -12 -22 -20 2 -23 -1 -19 -21 2
-12 8 -23 13 -23 5 0 8 4 6 9 -2 9 2 11 29 11 14 0 14 -2 -1 -16 -18 -18 -13
-32 7 -18 12 9 25 10 70 5 9 0 15 -8 13 -18 -1 -10 0 -13 2 -6 7 20 31 22 48
3 9 -10 14 -24 10 -29 -3 -6 -1 -11 5 -11 8 0 10 9 6 25 -4 16 -2 25 5 25 7 0
8 7 4 18 -3 9 -8 32 -11 51 -2 18 -13 46 -24 61 -11 15 -17 30 -14 32 3 3 -2
8 -9 11 -11 4 -13 0 -10 -14 3 -10 9 -19 14 -19 5 0 9 -7 9 -15 0 -8 -3 -15
-7 -15 -13 0 -39 20 -28 20 6 0 2 7 -9 15 -10 7 -15 18 -11 24 3 6 0 11 -9 11
-14 0 -16 23 -4 36 4 3 4 13 1 21 -4 11 -8 12 -14 2 -6 -10 -13 -9 -32 4 l-25
16 5 -32z m73 -147 c0 -5 -2 -10 -4 -10 -3 0 -8 5 -11 10 -3 6 -1 10 4 10 6 0
11 -4 11 -10z m80 -35 c10 -12 10 -15 -4 -15 -9 0 -16 7 -16 15 0 8 2 15 4 15
2 0 9 -7 16 -15z"/>
<path d="M1130 851 c0 -6 5 -13 10 -16 6 -3 10 1 10 9 0 9 -4 16 -10 16 -5 0
-10 -4 -10 -9z"/>
<path d="M1007 829 c3 -10 9 -16 14 -13 13 8 11 21 -5 27 -10 4 -12 0 -9 -14z"/>
<path d="M1175 830 c3 -5 8 -10 11 -10 2 0 4 5 4 10 0 6 -5 10 -11 10 -5 0 -7
-4 -4 -10z"/>
<path d="M978 823 c7 -3 16 -2 19 1 4 3 -2 6 -13 5 -11 0 -14 -3 -6 -6z"/>
<path d="M120 781 c0 -6 4 -13 10 -16 6 -3 7 1 4 9 -7 18 -14 21 -14 7z"/>
<path d="M977 755 c3 -8 9 -12 14 -9 12 7 11 11 -5 17 -10 4 -13 1 -9 -8z"/>
<path d="M1220 690 c0 -5 5 -10 10 -10 6 0 10 5 10 10 0 6 -4 10 -10 10 -5 0
-10 -4 -10 -10z"/>
<path d="M1251 667 c-12 -15 -5 -27 16 -27 7 0 13 9 13 20 0 23 -13 26 -29 7z"/>
<path d="M110 661 c0 -11 29 -35 35 -29 2 2 -4 12 -15 21 -11 9 -20 13 -20 8z"/>
<path d="M67 625 c3 -8 9 -12 14 -9 12 7 11 11 -5 17 -10 4 -13 1 -9 -8z"/>
<path d="M1247 624 c-12 -12 -8 -23 12 -34 15 -8 19 -7 17 5 -3 20 -21 37 -29
29z"/>
<path d="M96 611 c-10 -16 5 -40 25 -38 23 2 26 17 3 17 -14 0 -14 3 -4 15 10
12 10 15 -3 15 -9 0 -18 -4 -21 -9z"/>
<path d="M160 600 c12 -22 18 -24 39 -11 9 6 10 11 2 15 -6 4 -15 4 -21 1 -5
-3 -10 -1 -10 4 0 6 -5 11 -10 11 -7 0 -7 -6 0 -20z"/>
<path d="M1061 601 c-9 -6 -11 -16 -5 -32 4 -13 7 -28 6 -33 -2 -5 6 -6 17 -3
13 3 18 1 14 -8 -4 -11 -11 -11 -39 1 -20 8 -34 10 -34 4 0 -5 6 -10 13 -10
16 0 37 -41 37 -71 0 -11 -11 -31 -25 -45 -29 -29 -37 -60 -23 -87 9 -18 10
-18 23 0 13 17 14 17 8 -5 -3 -12 -9 -25 -14 -28 -18 -11 -9 -31 14 -28 12 1
26 3 30 3 5 1 6 15 2 32 -5 22 -4 29 4 25 6 -4 11 -14 11 -22 0 -20 24 -12 28
9 2 10 -3 17 -12 17 -24 0 -19 16 14 43 32 27 37 42 18 53 -7 5 -8 3 -4 -5 5
-8 0 -14 -13 -18 -12 -3 -21 -10 -21 -17 0 -6 -7 -3 -14 7 -7 9 -11 29 -8 43
3 19 7 22 13 12 7 -10 9 -10 10 0 3 27 4 31 11 37 9 10 50 -14 43 -26 -4 -5
-1 -9 5 -9 6 0 9 -4 5 -9 -3 -5 -2 -12 3 -15 4 -2 14 9 21 25 7 16 19 29 27
29 11 0 9 8 -8 31 -16 23 -19 33 -10 36 17 6 15 23 -3 23 -8 0 -15 -6 -15 -12
0 -10 -3 -9 -9 1 -6 9 -11 10 -15 2 -4 -6 -12 -9 -17 -5 -5 3 -7 10 -4 15 5 8
-24 14 -47 10 -5 0 -8 5 -8 13 0 19 -13 27 -29 17z m19 -22 c0 -11 -4 -18 -10
-14 -5 3 -7 12 -3 20 7 21 13 19 13 -6z m10 -217 c0 -11 -8 -18 -22 -19 -13 0
-17 1 -10 4 6 3 12 14 12 24 0 11 5 17 10 14 6 -3 10 -14 10 -23z m-30 8 c0
-5 -2 -10 -4 -10 -3 0 -8 5 -11 10 -3 6 -1 10 4 10 6 0 11 -4 11 -10z"/>
<path d="M60 582 c0 -11 35 -52 44 -52 3 0 6 7 6 15 0 8 -7 15 -15 15 -8 0
-15 7 -15 15 0 8 -4 15 -10 15 -5 0 -10 -4 -10 -8z"/>
<path d="M1020 581 c0 -5 6 -14 14 -20 12 -10 13 -8 9 8 -5 21 -23 30 -23 12z"/>
<path d="M150 570 c0 -5 5 -10 10 -10 6 0 10 5 10 10 0 6 -4 10 -10 10 -5 0
-10 -4 -10 -10z"/>
<path d="M180 566 c0 -2 7 -7 16 -10 8 -3 12 -2 9 4 -6 10 -25 14 -25 6z"/>
<path d="M260 549 c0 -5 5 -7 10 -4 6 3 10 8 10 11 0 2 -4 4 -10 4 -5 0 -10
-5 -10 -11z"/>
<path d="M170 540 c-13 -8 -12 -10 3 -10 9 0 17 5 17 10 0 12 -1 12 -20 0z"/>
<path d="M206 532 c-2 -4 -1 -14 5 -22 6 -11 9 -12 9 -2 0 7 5 10 10 7 6 -3
10 1 10 9 0 17 -25 22 -34 8z"/>
<path d="M1251 518 c16 -31 16 -31 22 -14 4 10 -2 20 -14 27 -19 10 -20 9 -8
-13z"/>
<path d="M987 513 c-4 -3 -7 -11 -7 -17 0 -6 5 -5 12 2 6 6 9 14 7 17 -3 3 -9
2 -12 -2z"/>
<path d="M80 501 c0 -5 6 -13 13 -19 10 -8 13 -6 13 9 0 10 -6 19 -13 19 -7 0
-13 -4 -13 -9z"/>
<path d="M165 488 c8 -23 7 -23 -14 -4 -24 21 -28 11 -6 -18 7 -10 18 -15 24
-12 5 3 18 -5 29 -19 15 -19 21 -21 25 -11 12 31 -14 79 -46 84 -15 3 -17 -1
-12 -20z"/>
<path d="M47 484 c-3 -7 5 -23 20 -38 19 -19 29 -23 39 -15 9 8 15 5 23 -10
14 -25 14 -32 0 -28 -6 1 -14 -4 -16 -11 -3 -8 1 -10 11 -6 22 9 20 -8 -4 -29
-21 -18 -26 -37 -10 -37 6 0 10 5 10 11 0 5 4 7 10 4 6 -4 7 1 3 11 -5 13 -3
15 13 6 25 -13 84 -8 94 7 5 9 11 8 24 -4 20 -21 20 -32 0 -43 -15 -8 -15 -10
0 -15 9 -4 16 -1 16 5 0 6 8 4 18 -5 10 -10 22 -14 25 -10 4 3 7 1 7 -5 0 -15
-17 -16 -25 -2 -7 11 -65 -15 -65 -30 0 -5 9 -12 20 -15 11 -4 18 -10 15 -15
-9 -15 15 -22 30 -10 14 12 20 7 16 -14 -1 -5 7 -6 17 -4 11 3 27 1 36 -4 12
-7 16 -5 16 7 0 9 4 14 9 10 5 -3 12 -1 15 4 3 5 15 7 26 4 11 -3 20 0 20 6 0
6 -4 11 -10 11 -14 0 -13 37 1 42 7 2 4 10 -7 18 -14 12 -16 12 -9 1 6 -11 2
-13 -21 -7 -16 4 -30 12 -32 17 -6 15 -32 10 -32 -6 0 -9 -8 -6 -25 11 -14 14
-23 29 -20 34 3 5 -3 11 -12 13 -14 4 -13 5 5 6 16 1 22 -5 22 -18 0 -25 16
-36 24 -16 3 8 0 15 -6 15 -7 0 -6 5 2 15 7 8 9 15 4 15 -4 0 -3 5 4 12 17 17
15 28 -6 28 -11 0 -27 9 -36 19 -10 11 -26 19 -37 18 -12 -1 -15 -5 -9 -11 19
-19 10 -25 -30 -23 -22 2 -42 -2 -44 -8 -2 -5 -5 5 -5 24 -1 26 -4 31 -14 23
-10 -8 -16 -6 -26 10 -8 13 -16 17 -20 10 -9 -15 -59 -2 -63 17 -2 10 -6 12
-11 5z m183 -125 c0 -5 -15 -9 -32 -9 -20 0 -28 3 -21 8 18 11 53 12 53 1z
m80 -118 c0 -6 -4 -13 -10 -16 -5 -3 -10 1 -10 9 0 9 5 16 10 16 6 0 10 -4 10
-9z"/>
<path d="M1255 470 c-3 -5 1 -10 9 -10 9 0 16 5 16 10 0 6 -4 10 -9 10 -6 0
-13 -4 -16 -10z"/>
<path d="M990 405 c-7 -9 -11 -17 -9 -20 3 -2 10 5 17 15 14 24 10 26 -8 5z"/>
<path d="M1140 355 c-10 -12 -9 -15 4 -15 10 0 15 4 12 9 -4 5 0 12 6 14 8 4
9 6 2 6 -6 1 -17 -6 -24 -14z"/>
<path d="M990 329 c0 -9 -7 -19 -15 -23 -8 -3 -12 -12 -9 -21 4 -10 0 -15 -12
-15 -13 0 -15 -3 -7 -11 15 -15 5 -39 -13 -32 -8 3 -11 10 -7 16 3 6 1 7 -6 3
-9 -6 -9 -11 -1 -21 7 -8 7 -15 1 -19 -5 -3 -11 -1 -13 5 -6 19 -37 -2 -40
-29 -2 -14 -10 -28 -18 -30 -13 -5 -13 -3 -1 11 15 19 8 47 -13 47 -7 0 -17
-7 -20 -16 -3 -8 -2 -12 4 -9 18 11 10 -6 -14 -30 -13 -13 -30 -22 -37 -22
-24 3 -25 -15 -1 -24 14 -5 21 -5 17 1 -7 11 34 35 43 25 4 -4 -1 -12 -11 -19
-19 -15 -23 -36 -6 -36 6 0 13 9 16 20 6 24 10 25 30 5 8 -9 18 -13 22 -9 3 4
0 9 -7 11 -10 4 -10 8 -1 19 6 8 15 11 20 8 5 -3 16 2 25 10 8 9 12 16 7 16
-4 0 0 5 10 11 9 5 17 19 17 29 0 11 8 24 19 29 28 15 34 41 14 58 -17 13 -16
14 5 8 24 -7 29 8 12 35 -8 13 -10 13 -10 -1z"/>
<path d="M1225 330 c3 -5 8 -10 11 -10 2 0 4 5 4 10 0 6 -5 10 -11 10 -5 0 -7
-4 -4 -10z"/>
<path d="M115 290 c-3 -5 1 -10 9 -10 9 0 16 5 16 10 0 6 -4 10 -9 10 -6 0
-13 -4 -16 -10z"/>
<path d="M150 289 c0 -5 5 -7 10 -4 6 3 10 8 10 11 0 2 -4 4 -10 4 -5 0 -10
-5 -10 -11z"/>
<path d="M196 283 c-6 -14 -5 -15 5 -6 7 7 10 15 7 18 -3 3 -9 -2 -12 -12z"/>
<path d="M227 280 c3 -11 7 -20 9 -20 2 0 4 9 4 20 0 11 -4 20 -9 20 -5 0 -7
-9 -4 -20z"/>
<path d="M833 263 c-20 -8 -16 -43 5 -43 15 0 52 32 52 45 0 6 -41 5 -57 -2z"/>
<path d="M1131 244 c-9 -20 -9 -25 0 -22 14 5 32 48 20 48 -4 0 -13 -12 -20
-26z"/>
<path d="M170 240 c0 -5 5 -10 11 -10 5 0 7 5 4 10 -3 6 -8 10 -11 10 -2 0 -4
-4 -4 -10z"/>
<path d="M520 234 c0 -8 -4 -13 -9 -10 -5 3 -21 -4 -36 -16 -26 -20 -27 -22
-9 -30 18 -8 18 -8 -1 -4 -11 2 -27 5 -35 7 -8 2 -15 -3 -15 -11 0 -8 6 -14
14 -12 7 1 27 -6 45 -16 29 -16 32 -17 47 -2 9 9 15 24 13 32 -1 9 7 18 17 21
10 3 19 12 19 21 0 10 -5 13 -17 9 -10 -4 -14 -2 -10 4 4 6 0 13 -8 17 -9 3
-15 0 -15 -10z"/>
<path d="M200 230 c0 -21 17 -46 25 -38 4 4 0 17 -9 30 -10 14 -16 17 -16 8z"/>
<path d="M610 230 c0 -5 -7 -10 -15 -10 -8 0 -15 -4 -15 -9 0 -5 7 -11 15 -15
25 -9 17 -25 -10 -20 -14 2 -25 0 -25 -5 0 -13 27 -21 45 -15 8 4 15 1 15 -5
0 -6 -6 -11 -14 -11 -7 0 -19 -7 -26 -15 -12 -14 -15 -14 -30 0 -15 14 -30 11
-30 -6 0 -7 39 -22 53 -20 4 1 7 -4 7 -10 0 -6 -7 -9 -15 -5 -10 4 -15 -1 -15
-15 0 -15 -5 -19 -15 -15 -9 3 -15 0 -15 -8 0 -7 7 -13 15 -13 8 0 15 4 15 9
0 4 10 8 21 8 18 0 20 -2 8 -16 -10 -13 -10 -17 1 -24 14 -9 56 -7 66 3 3 3
12 3 20 0 8 -3 23 2 34 12 13 12 27 15 45 11 20 -5 25 -3 25 13 0 11 6 22 13
24 9 4 8 8 -3 16 -8 5 -17 6 -20 2 -3 -4 -13 -10 -22 -14 -13 -5 -16 0 -12 25
3 29 2 30 -11 12 -13 -17 -14 -17 -15 -1 0 19 -25 23 -36 5 -8 -12 -34 16 -34
36 0 6 4 5 8 -2 6 -9 15 -10 33 -3 21 8 12 16 -13 12 -5 0 -8 4 -8 10 0 5 -4
7 -10 4 -5 -3 -10 -2 -10 4 0 5 5 13 10 16 19 12 11 45 -10 45 -11 0 -20 -4
-20 -10z m18 -136 c15 -15 14 -16 -7 -9 -21 6 -23 5 -17 -11 6 -15 4 -16 -5
-7 -11 11 -6 43 6 43 4 0 14 -7 23 -16z m52 -4 c-8 -5 -19 -10 -25 -10 -5 0
-3 5 5 10 8 5 20 10 25 10 6 0 3 -5 -5 -10z m30 -20 c0 -5 -5 -10 -11 -10 -5
0 -7 5 -4 10 3 6 8 10 11 10 2 0 4 -4 4 -10z"/>
<path d="M1000 220 c-7 -14 -7 -20 0 -20 5 0 10 5 10 11 0 5 4 8 9 5 10 -7 9
-25 -2 -43 -5 -7 -4 -13 2 -13 5 0 11 -8 13 -17 3 -16 5 -16 15 2 8 15 8 30 0
58 -13 41 -31 47 -47 17z"/>
<path d="M1058 233 c6 -2 18 -2 25 0 6 3 1 5 -13 5 -14 0 -19 -2 -12 -5z"/>
<path d="M676 211 c-4 -5 3 -7 14 -4 23 6 26 13 6 13 -8 0 -17 -4 -20 -9z"/>
<path d="M557 139 c7 -7 15 -10 18 -7 3 3 -2 9 -12 12 -14 6 -15 5 -6 -5z"/>
<path d="M416 128 c4 -5 14 -8 23 -5 18 4 44 -17 34 -27 -4 -3 -1 -6 5 -6 14
0 15 10 3 29 -5 8 -23 16 -40 17 -18 1 -28 -2 -25 -8z"/>
<path d="M910 110 c-8 -5 -12 -12 -9 -15 4 -3 12 1 19 10 14 17 11 19 -10 5z"/>
<path d="M816 73 c-12 -13 -6 -33 12 -32 12 0 13 2 3 6 -10 4 -10 7 -1 13 7 4
8 10 2 13 -5 4 -12 4 -16 0z"/>
</g>
</svg>
